<svg id="Layer_1" data-name="Layer 1" xmlns="http://www.w3.org/2000/svg" viewBox="0 0 285.5 309.01"><defs><style>.cls-1{fill:none;}.cls-2{fill:#a06919;}.cls-3{fill:#07857e;}.cls-4{font-size:6.55px;font-family:Gilroy-Light, Gilroy;font-weight:300;}</style></defs><path class="cls-1" d="M142.38,127.68a66.13,66.13,0,0,0-12.83,7.15,64.45,64.45,0,0,0-8.52,7.31,37.81,37.81,0,0,0,9.07,3.43c5.87-6.31,18.14-15.59,38.76-14.28a37.34,37.34,0,0,0,5-9.18A76,76,0,0,0,142.38,127.68Z"/><polyline class="cls-1" points="176.02 105.88 155.56 105.88 169.23 92.54 169.42 92.35 171.24 90.58 171.24 90.59"/><path class="cls-1" d="M136.3,146.49c.79,0,1.59.08,2.39.08a37.33,37.33,0,0,0,25.86-10.39C151.2,136.26,142.15,141.2,136.3,146.49Z"/><path class="cls-1" d="M126.64,130.77c.76-.55,1.55-1.06,2.34-1.58a72.4,72.4,0,0,0-25-6,37.63,37.63,0,0,0,12.73,16.23A69.3,69.3,0,0,1,126.64,130.77Z"/><path class="cls-1" d="M129.54,134.84a64.94,64.94,0,0,0-8.51,7.3,36.83,36.83,0,0,0,9.07,3.43c5.87-6.31,18.14-15.59,38.76-14.28a37.34,37.34,0,0,0,5-9.18,76.34,76.34,0,0,0-31.45,5.57A66,66,0,0,0,129.54,134.84Z"/><path class="cls-1" d="M138.69,146.57a37.33,37.33,0,0,0,25.86-10.39c-13.35.08-22.4,5-28.26,10.31C137.09,146.54,137.88,146.57,138.69,146.57Z"/><path class="cls-1" d="M129,129.19a72.62,72.62,0,0,0-25-6,37.55,37.55,0,0,0,12.73,16.23,69.76,69.76,0,0,1,9.92-8.65C127.4,130.22,128.19,129.71,129,129.19Z"/><path class="cls-2" d="M174.26,117.13l-.76,0h-.76a80.91,80.91,0,0,0-32.3,6c-2.15.91-4.25,1.93-6.3,3a76.46,76.46,0,0,0-29.38-7.9c-.67,0-1.34-.09-2-.12h-.15c-1.42,0-3.31,0-5.39.09a42.48,42.48,0,0,0,83.1-.54c-2.2-.3-4.17-.43-5.54-.49Zm-57.55,22.29A37.55,37.55,0,0,1,104,123.19a72.62,72.62,0,0,1,25,6c-.79.52-1.58,1-2.35,1.58A69.76,69.76,0,0,0,116.71,139.42Zm22,7.15c-.81,0-1.6,0-2.4-.08,5.86-5.29,14.91-10.23,28.26-10.31A37.33,37.33,0,0,1,138.69,146.57Zm30.17-15.28c-20.62-1.31-32.89,8-38.76,14.28a36.83,36.83,0,0,1-9.07-3.43,64.94,64.94,0,0,1,8.51-7.3,66,66,0,0,1,12.84-7.16,76.34,76.34,0,0,1,31.45-5.57A37.34,37.34,0,0,1,168.86,131.29Z"/><path class="cls-3" d="M181,105.88H155.56l13.67-13.34.19-.19,1.82-1.77h0L175,87a42.74,42.74,0,0,0-3-4.23l-3.57,3.55s0,0,0,0l-1.63,1.59h0L148.4,105.88h-6.47V99L160,80.45l0,0,4.66-4.88a42.41,42.41,0,0,0-4.09-2.82L157,76.4l-.88.9-.47.48-13.68,14v-25q-1.6-.12-3.24-.12c-.59,0-1.18,0-1.76,0V91.79l-13.67-14-1.86-1.9h0l-3.62-3.74a39.83,39.83,0,0,0-4.26,2.77l4.21,4.4.28.29L136.93,99v6.93h-6.52L112.31,88.2,111,86.9l-5-4.84a41.81,41.81,0,0,0-3,4l3.66,3.59,2.6,2.54,14,13.66H96.34c-.08,1.06-.12,2.14-.12,3.22,0,.6,0,1.19,0,1.78h84.86c0-.59,0-1.18,0-1.78C181.16,108,181.12,106.94,181,105.88Z"/><path d="M45.33,203.69a16.08,16.08,0,1,1,0-32.16,15.67,15.67,0,0,1,7.77,2,14.58,14.58,0,0,1,5.56,5.4l-4.43,2.57a9.12,9.12,0,0,0-3.61-3.65,10.52,10.52,0,0,0-5.29-1.36,10.73,10.73,0,0,0-8,3.15,11.85,11.85,0,0,0,0,15.94,10.73,10.73,0,0,0,8,3.15,10.52,10.52,0,0,0,5.31-1.36,8.82,8.82,0,0,0,3.59-3.65l4.43,2.53a14.31,14.31,0,0,1-5.52,5.42A15.62,15.62,0,0,1,45.33,203.69Z"/><path d="M73,203.69a11.36,11.36,0,0,1-8.28-3.37,11.76,11.76,0,0,1,0-16.56,11.88,11.88,0,0,1,16.58,0,11.81,11.81,0,0,1,0,16.56A11.34,11.34,0,0,1,73,203.69ZM68,197a7,7,0,0,0,9.83,0,7.26,7.26,0,0,0,0-10A7.06,7.06,0,0,0,68,187a7.29,7.29,0,0,0,0,10Z"/><path d="M89,203.11V170.78h4.78v32.33Z"/><path d="M116.84,172.11h4.79v31h-4.79v-3.19a9,9,0,0,1-7.75,3.77,10.37,10.37,0,0,1-7.79-3.39,12.2,12.2,0,0,1,0-16.54,10.38,10.38,0,0,1,7.79-3.37,9,9,0,0,1,7.75,3.72Zm-12,25a7.24,7.24,0,0,0,10,0,7.45,7.45,0,0,0,0-10.14,7.21,7.21,0,0,0-10,0,7.45,7.45,0,0,0,0,10.14Z"/><path d="M139.56,185.57h-5.49V196.2a2.66,2.66,0,0,0,.62,2,2.81,2.81,0,0,0,1.84.67q1.22.06,3,0v4.3c-3.66.44-6.29.13-7.88-1s-2.39-3.07-2.39-6V185.57h-4.08V181h4.08v-4.79l4.78-1.41V181h5.49Z"/><path d="M148.44,176.74a3,3,0,1,1-2.15-5.21,2.93,2.93,0,0,1,2.17.91,3,3,0,0,1,0,4.3Zm-4.54,26.37V181h4.78v22.14Z"/><path d="M169.23,181h5.23l-8.64,22.14h-5.54L151.65,181h5.22l6.21,16.87Z"/><path d="M194.12,181h4.78v22.14h-4.78v-3.19a9,9,0,0,1-7.75,3.77,10.4,10.4,0,0,1-7.8-3.39,12.2,12.2,0,0,1,0-16.54,10.42,10.42,0,0,1,7.8-3.37,9,9,0,0,1,7.75,3.72Zm-12,16.14a7.24,7.24,0,0,0,10,0,7.45,7.45,0,0,0,0-10.14,7.21,7.21,0,0,0-10,0,7.43,7.43,0,0,0,0,10.14Z"/><path d="M216.84,185.57h-5.5V196.2a2.66,2.66,0,0,0,.62,2,2.83,2.83,0,0,0,1.84.67c.81,0,1.82,0,3,0v4.3c-3.67.44-6.29.13-7.89-1s-2.39-3.07-2.39-6V185.57h-4.07V181h4.07v-4.79l4.78-1.41V181h5.5Z"/><path d="M224.05,194.08a6.1,6.1,0,0,0,2.44,3.87,7.84,7.84,0,0,0,4.65,1.35,6.48,6.48,0,0,0,5.71-2.74l3.94,2.3q-3.27,4.83-9.7,4.83a11.82,11.82,0,0,1-8.72-3.3,11.66,11.66,0,0,1,8.37-20,10.35,10.35,0,0,1,8,3.41,11.86,11.86,0,0,1,3.13,8.28,14.59,14.59,0,0,1-.18,2Zm0-3.9h13a6.16,6.16,0,0,0-6.33-5.45,6.74,6.74,0,0,0-4.43,1.46A6.61,6.61,0,0,0,224,190.18Z"/><text class="cls-4" transform="translate(243.91 203.08)">TM</text><path d="M91.54,228.07V224.7l-2.84-4.25h1.41l2,3.05,2-3.05h1.41l-2.83,4.23v3.39Z"/><path d="M99.25,228.18a3.93,3.93,0,1,1,3.62-3.92A3.68,3.68,0,0,1,99.25,228.18Zm0-1c1.36,0,2.31-1.15,2.31-2.89s-1-2.89-2.31-2.89S97,222.5,97,224.26,97.91,227.15,99.25,227.15Z"/><path d="M107.14,228.18c-1.84,0-3-1-3-3.14v-4.59h1.25v4.74c0,1.32.64,2,1.7,2s1.69-.64,1.69-2v-4.74h1.25V225C110.08,227.15,109,228.18,107.14,228.18Z"/><path d="M111.85,228.07v-7.62h2.42c1.91,0,3.06.82,3.06,2.26a2.07,2.07,0,0,1-1.62,2.07l1.74,3.29h-1.37L114.44,225H113.1v3.09Zm1.25-6.59V224h1.28c1.07,0,1.65-.43,1.65-1.24s-.58-1.23-1.65-1.23Z"/><path d="M122.8,228.07l-2.52-7.62h1.28l2.42,7.37,2.43-7.37h1.27l-2.51,7.62Z"/><path d="M128.66,228.07v-7.62h1.25v7.62Z"/><path d="M131.76,228.07v-7.62h2.42c1.91,0,3.06.82,3.06,2.26a2.07,2.07,0,0,1-1.62,2.07l1.74,3.29H136L134.35,225H133v3.09Zm1.25-6.59V224h1.28c1.07,0,1.65-.43,1.65-1.24s-.58-1.23-1.65-1.23Z"/><path d="M140.25,228.07v-6.59h-2.48v-1H144v1h-2.47v6.59Z"/><path d="M147.88,228.18c-1.85,0-2.95-1-2.95-3.14v-4.59h1.25v4.74c0,1.32.64,2,1.7,2s1.68-.64,1.68-2v-4.74h1.25V225C150.81,227.15,149.71,228.18,147.88,228.18Z"/><path d="M151.61,228.07l2.52-7.62h2.37l2.51,7.62h-1.27l-.71-2.14H153.6l-.71,2.14Zm2.32-3.18h2.76l-1.38-4.2Z"/><path d="M160,228.07v-7.62h1.25V227h3.31v1Z"/><path d="M171,228.18a3.94,3.94,0,0,1,0-7.84,3.33,3.33,0,0,1,3.41,2.88H173.1a2,2,0,0,0-2.08-1.85c-1.39,0-2.3,1.13-2.3,2.89s.94,2.89,2.38,2.89a2,2,0,0,0,2.05-1.84h1.29A3.33,3.33,0,0,1,171,228.18Z"/><path d="M178.89,228.18a3.93,3.93,0,1,1,3.62-3.92A3.68,3.68,0,0,1,178.89,228.18Zm0-1c1.36,0,2.31-1.15,2.31-2.89s-.95-2.89-2.31-2.89-2.29,1.13-2.29,2.89S177.55,227.15,178.89,227.15Z"/><path d="M183.91,228.07v-7.62h1.25V227h3.31v1Z"/><path d="M189.53,228.07v-7.62h2.31a3.81,3.81,0,1,1,0,7.62Zm1.25-6.59V227h1a2.78,2.78,0,0,0,0-5.56Z"/><path d="M93,242.38a3.94,3.94,0,0,1,0-7.84,3.31,3.31,0,0,1,3.41,2.89H95.05A2,2,0,0,0,93,235.57c-1.39,0-2.3,1.14-2.3,2.89s.94,2.9,2.37,2.9a2,2,0,0,0,2.06-1.85H96.4A3.34,3.34,0,0,1,93,242.38Z"/><path d="M97.69,242.27v-7.62h1.25v3.23h3.27v-3.23h1.25v7.62h-1.25v-3.36H98.94v3.36Z"/><path d="M104.44,242.27l2.52-7.62h2.37l2.51,7.62h-1.27l-.71-2.14h-3.43l-.71,2.14Zm2.32-3.18h2.76l-1.38-4.19Z"/><path d="M112.83,242.27v-7.62h1.25v7.62Z"/><path d="M115.93,242.27v-7.62h2.48l2.7,7.38v-7.38h1.25v7.62h-2.47l-2.71-7.37v7.37Z"/><path d="M125.69,242.27l2.51-7.62h2.38l2.5,7.62h-1.27l-.7-2.14h-3.44l-.7,2.14Zm2.31-3.18h2.76l-1.38-4.19Z"/><path d="M136.69,242.38a3.07,3.07,0,0,1-3.23-2.79h1.29a1.92,1.92,0,0,0,2,1.77c1,0,1.69-.42,1.69-1.13s-.47-.95-1.45-1.18l-1.11-.25c-1.49-.36-2.23-1.05-2.23-2.11,0-1.28,1.26-2.15,2.8-2.15,1.94,0,2.93,1.06,3.07,2.38h-1.29a1.59,1.59,0,0,0-1.76-1.35c-.87,0-1.5.38-1.5,1s.38.76,1.51,1l1.11.27c1.43.33,2.15,1.08,2.15,2.29S138.46,242.38,136.69,242.38Z"/><path d="M143.77,242.38a3.07,3.07,0,0,1-3.23-2.79h1.29a1.91,1.91,0,0,0,1.95,1.77c1,0,1.69-.42,1.69-1.13s-.46-.95-1.44-1.18l-1.11-.25c-1.49-.36-2.23-1.05-2.23-2.11,0-1.28,1.26-2.15,2.8-2.15,1.94,0,2.93,1.06,3.07,2.38h-1.3a1.58,1.58,0,0,0-1.75-1.35c-.87,0-1.5.38-1.5,1s.38.76,1.51,1l1.1.27c1.44.33,2.16,1.08,2.16,2.29S145.54,242.38,143.77,242.38Z"/><path d="M148.12,242.27v-7.62h1.25v7.62Z"/><path d="M154,242.38a3.07,3.07,0,0,1-3.23-2.79H152a1.92,1.92,0,0,0,2,1.77c1,0,1.68-.42,1.68-1.13s-.46-.95-1.44-1.18l-1.11-.25c-1.49-.36-2.23-1.05-2.23-2.11,0-1.28,1.26-2.15,2.8-2.15,1.94,0,2.93,1.06,3.07,2.38h-1.3a1.57,1.57,0,0,0-1.75-1.35c-.87,0-1.5.38-1.5,1s.38.76,1.51,1l1.1.27c1.44.33,2.16,1.08,2.16,2.29S155.72,242.38,154,242.38Z"/><path d="M159.81,242.27v-6.59h-2.48v-1h6.19v1h-2.47v6.59Z"/><path d="M163,242.27l2.52-7.62h2.37l2.51,7.62h-1.27l-.71-2.14H165l-.71,2.14Zm2.32-3.18h2.76l-1.38-4.19Z"/><path d="M171.41,242.27v-7.62h2.48l2.7,7.38v-7.38h1.25v7.62h-2.47l-2.71-7.37v7.37Z"/><path d="M181.36,242.27v-6.59h-2.47v-1h6.18v1h-2.46v6.59Z"/><path d="M206.38,231.53a7.65,7.65,0,0,0-7.64-7.64V225a6.5,6.5,0,0,1,0,13h-9.11l2.81-1.39v-1.48l-4.33,2.28v2.21l4.33,2.28v-1.48l-2.57-1.28h9A7.65,7.65,0,0,0,206.38,231.53Zm-17.78,7,.1,0v.09Z"/><path d="M79.13,231.5a7.64,7.64,0,0,0,7.63,7.64V238a6.49,6.49,0,1,1,0-13v-1.15A7.64,7.64,0,0,0,79.13,231.5Z"/></svg>
